<svg xmlns="http://www.w3.org/2000/svg" width="15" height="16" viewBox="0 0 15 16" fill="none">
  <path
    d="M8.40318 11.33C8.09667 11.0235 8.09667 10.5265 8.40318 10.22L9.51315 9.11004C9.81966 8.80353 10.3166 8.80353 10.6231 9.11004L14.3559 12.8428C14.6624 13.1493 14.6624 13.6463 14.3559 13.9528L13.2459 15.0628C12.9394 15.3693 12.4425 15.3693 12.136 15.0628L8.40318 11.33Z"
    fill="currentColor" />
  <path
    d="M0.229883 3.1571C-0.0766275 2.85059 -0.0766276 2.35364 0.229883 2.04713L1.33985 0.937158C1.64636 0.630648 2.14332 0.630648 2.44983 0.937158L6.18261 4.66994C6.48912 4.97645 6.48912 5.4734 6.18261 5.77991L5.07264 6.88988C4.76613 7.19639 4.26917 7.19639 3.96266 6.88988L0.229883 3.1571Z"
    fill="currentColor" />
  <path
    d="M3.96285 9.10989C4.26936 8.80338 4.76631 8.80338 5.07282 9.10989L6.1828 10.2199C6.48931 10.5264 6.48931 11.0233 6.18279 11.3298L2.45001 15.0626C2.1435 15.3691 1.64655 15.3691 1.34004 15.0626L0.230068 13.9526C-0.0764424 13.6461 -0.0764419 13.1492 0.230068 12.8427L3.96285 9.10989Z"
    fill="currentColor" />
  <path
    d="M12.1353 0.937411C12.4418 0.630901 12.9388 0.630901 13.2453 0.937411L14.3553 2.04738C14.6618 2.35389 14.6618 2.85085 14.3553 3.15736L10.6225 6.89014C10.316 7.19665 9.81903 7.19665 9.51252 6.89014L8.40254 5.78016C8.09603 5.47365 8.09603 4.9767 8.40254 4.67019L12.1353 0.937411Z"
    fill="currentColor" />
</svg>